<svg width="24" height="24" viewBox="0 0 24 24" fill="none" xmlns="http://www.w3.org/2000/svg">
<g id="Frame 7436">
<path id="Vector" d="M21.9034 7.13351C21.553 5.93018 20.9047 4.83469 20.0185 3.94847C19.1322 3.06224 18.0368 2.41392 16.8334 2.06351C16.5055 1.97883 16.1614 1.97883 15.8334 2.06351C15.5036 2.15926 15.204 2.33835 14.9634 2.58351L12.7334 4.82351L3.19343 14.3535C2.89302 14.6662 2.69732 15.0646 2.63343 15.4935L2.02343 19.6535C1.97642 19.9648 2.00035 20.2827 2.09343 20.5835C2.19543 20.8835 2.36343 21.1565 2.58343 21.3835C2.80743 21.6055 3.07743 21.7755 3.37343 21.8835C3.58043 21.9515 3.79643 21.9845 4.01343 21.9835H4.30343L8.46343 21.3735C8.89773 21.3178 9.30174 21.121 9.61343 20.8135L19.1634 11.2635L21.3834 9.05351C21.6337 8.80876 21.8152 8.50261 21.91 8.16567C22.0048 7.82872 22.0094 7.4728 21.9234 7.13351H21.9034ZM20.4434 7.76351C20.4162 7.84754 20.368 7.92326 20.3034 7.98351L18.6134 9.67351L14.2934 5.36351L16.0034 3.65351C16.0691 3.59309 16.1478 3.5486 16.2334 3.52351H16.4634C17.4102 3.80511 18.2717 4.31835 18.9702 5.01677C19.6686 5.7152 20.1818 6.57677 20.4634 7.52351C20.4739 7.60402 20.4671 7.68585 20.4434 7.76351Z" fill="white"/>
</g>
</svg>
