<svg width="25" height="24" viewBox="0 0 25 24" fill="none" xmlns="http://www.w3.org/2000/svg">
<g id="game-icons:solid-leaf">
<path id="Vector" d="M21.2003 2C13.1411 6.64764 -2.96309 1.08128 4.47147 15.9817C4.60117 16.2239 4.75156 16.4502 4.91702 16.6654C3.65225 18.0543 2.75378 19.6366 2.5 21.4726C2.72259 21.6142 3.11732 21.7858 3.63748 21.8887C4.19014 21.998 4.88503 22.0362 5.66515 21.9605C5.17922 20.4479 5.33617 19.0132 5.91211 17.7203C6.14485 17.9949 6.34726 18.1496 6.53764 18.2664C26.2741 30.3725 22.8086 6.32611 21.2003 2Z" fill="#7BBC5C"/>
<path id="Union" fill-rule="evenodd" clip-rule="evenodd" d="M16 8.5C16 9.05228 15.5523 9.5 15 9.5C14.4477 9.5 14 9.05228 14 8.5C14 7.94772 14.4477 7.5 15 7.5C15.5523 7.5 16 7.94772 16 8.5ZM11 11.5C11 12.0523 10.5523 12.5 10 12.5C9.44772 12.5 9 12.0523 9 11.5C9 10.9477 9.44772 10.5 10 10.5C10.5523 10.5 11 10.9477 11 11.5ZM11.2751 13.5825C11.0447 13.4307 10.7348 13.4942 10.5827 13.7245C10.4306 13.9549 10.4941 14.2651 10.7245 14.4173L11 14C10.7245 14.4173 10.7247 14.4174 10.7249 14.4175L10.7254 14.4179L10.7265 14.4186L10.7292 14.4203L10.7366 14.4251L10.7598 14.4396C10.7789 14.4513 10.8052 14.467 10.8383 14.4857C10.9044 14.5231 10.9982 14.5729 11.1166 14.6273C11.3526 14.7358 11.6899 14.8645 12.1028 14.9495C12.9342 15.1207 14.0718 15.1133 15.2811 14.4151C16.4904 13.7169 17.0656 12.7354 17.3331 11.9298C17.4659 11.5297 17.5231 11.1732 17.5471 10.9146C17.5592 10.7849 17.563 10.6788 17.5637 10.6028C17.564 10.5648 17.5636 10.5342 17.563 10.5118L17.562 10.4845L17.5616 10.4756L17.5614 10.4724L17.5613 10.4711L17.5613 10.4706C17.5613 10.4703 17.5613 10.47 17.0622 10.5L17.5613 10.47C17.5447 10.1944 17.3079 9.98435 17.0322 10.0009C16.7573 10.0174 16.5476 10.2531 16.5629 10.5278L16.563 10.5284L16.5633 10.539C16.5636 10.5499 16.564 10.5685 16.5637 10.5939C16.5633 10.6448 16.5606 10.7229 16.5514 10.822C16.5329 11.0209 16.4883 11.3006 16.384 11.6147C16.1772 12.2377 15.7368 12.9972 14.7811 13.549C13.8253 14.1008 12.9474 14.1024 12.3045 13.97C11.9803 13.9033 11.7158 13.8021 11.5342 13.7187C11.4438 13.6771 11.3749 13.6404 11.3305 13.6153C11.3084 13.6028 11.2925 13.5932 11.2832 13.5875L11.2742 13.5819C11.2737 13.5816 11.2735 13.5814 11.2735 13.5814L11.2735 13.5815L11.2742 13.5819L11.2742 13.5819L11.2748 13.5823L11.2751 13.5825ZM11.2751 13.5825C11.2753 13.5826 11.2755 13.5827 11 14L11.2755 13.5827C11.2754 13.5827 11.2752 13.5826 11.2751 13.5825ZM16.563 10.5284C16.563 10.5282 16.563 10.528 16.5629 10.5278L16.5629 10.5276L16.563 10.5284ZM16.563 10.5284C16.563 10.5287 16.563 10.529 16.563 10.5293L16.563 10.5291L16.563 10.5284L16.563 10.5284Z" fill="#181717"/>
</g>
</svg>
